<svg width="512" height="512" version="1.1" xmlns="http://www.w3.org/2000/svg" desc="Created with imagetracer.js version 1.2.6" ><path fill="rgb(124,58,44)" stroke="rgb(124,58,44)" stroke-width="1" opacity="0.996078431372549" d="M 266.5 44 Q 275.5 44 278 50.5 L 279 58.5 L 188.5 150 L 182.5 152 Q 176 150.5 173 145.5 L 172 137.5 L 263.5 45 L 266.5 44 Z " /><path fill="rgb(124,58,44)" stroke="rgb(124,58,44)" stroke-width="1" opacity="0.996078431372549" d="M 277.5 82 L 289 92.5 L 278.5 83 L 210 150.5 L 220.5 162 L 209 150.5 L 277.5 82 Z " /><path fill="rgb(124,58,44)" stroke="rgb(124,58,44)" stroke-width="1" opacity="0.996078431372549" d="M 316.5 88 L 322.5 89 L 334 94.5 L 334 96.5 L 223.5 207 L 221 205.5 L 216 193.5 L 216 188.5 L 272 131.5 L 273 126.5 L 270 122.5 L 284.5 109 L 286.5 109 Q 288 111.5 293.5 110 L 316.5 88 Z " /><path fill="rgb(124,58,44)" stroke="rgb(124,58,44)" stroke-width="1" opacity="0.996078431372549" d="M 284.5 98 L 283.5 100 L 284.5 98 Z " /><path fill="rgb(124,58,44)" stroke="rgb(124,58,44)" stroke-width="1" opacity="0.996078431372549" d="M 283.5 106 L 284.5 108 L 283.5 106 Z " /><path fill="rgb(124,58,44)" stroke="rgb(124,58,44)" stroke-width="1" opacity="0.996078431372549" d="M 343.5 107 L 235.5 216 L 343.5 107 Z " /><path fill="rgb(124,58,44)" stroke="rgb(124,58,44)" stroke-width="1" opacity="0.996078431372549" d="M 264.5 120 L 267 120.5 L 264.5 121 L 264.5 120 Z " /><path fill="rgb(124,58,44)" stroke="rgb(124,58,44)" stroke-width="1" opacity="0.996078431372549" d="M 261.5 121 L 260.5 123 L 261.5 121 Z " /><path fill="rgb(124,58,44)" stroke="rgb(124,58,44)" stroke-width="1" opacity="0.996078431372549" d="M 387.5 148 L 395 164.5 L 394 167.5 L 295.5 266 L 290.5 267 L 276 260.5 L 387.5 148 Z " /><path fill="rgb(124,58,44)" stroke="rgb(124,58,44)" stroke-width="1" opacity="0.996078431372549" d="M 389.5 193 L 400.5 205 L 389.5 194 L 322 261.5 L 332 272.5 L 321 262.5 L 389.5 193 Z " /><path fill="rgb(124,58,44)" stroke="rgb(124,58,44)" stroke-width="1" opacity="0.996078431372549" d="M 423.5 204 Q 434.6 202.4 437 209.5 L 438 218.5 L 348.5 309 Q 346.2 311.7 340.5 311 L 333 305.5 Q 330.3 303.2 331 297.5 L 334 292.5 L 420.5 206 L 423.5 204 Z " /><path fill="rgb(124,58,44)" stroke="rgb(124,58,44)" stroke-width="1" opacity="0.996078431372549" d="M 229.5 232 L 251 253.5 L 249.5 255 L 212.5 286 L 197 270.5 L 198 269.5 L 229.5 232 Z " /><path fill="rgb(124,58,44)" stroke="rgb(124,58,44)" stroke-width="1" opacity="0.996078431372549" d="M 170.5 276 L 168.5 279 L 170.5 276 Z " /><path fill="rgb(124,58,44)" stroke="rgb(124,58,44)" stroke-width="1" opacity="0.996078431372549" d="M 181.5 276 L 206.5 302 L 181.5 276 Z " /><path fill="rgb(124,58,44)" stroke="rgb(124,58,44)" stroke-width="1" opacity="0.996078431372549" d="M 168.5 289 L 192.5 314 L 168.5 289 Z " /><path fill="rgb(124,58,44)" stroke="rgb(124,58,44)" stroke-width="1" opacity="0.996078431372549" d="M 161.5 305 L 178 320.5 L 144 357.5 Q 140.8 359.8 142 366.5 L 144 369.5 L 130.5 384 Q 128.5 381 122.5 382 L 119 384 L 108 397.5 L 44.5 465 Q 40.2 468.2 32.5 468 L 25.5 466 L 19 460.5 Q 13.7 455.8 15 444.5 L 18 437.5 L 28.5 427 L 161.5 305 Z " /><path fill="rgb(124,58,44)" stroke="rgb(124,58,44)" stroke-width="1" opacity="0.996078431372549" d="M 206.5 311 L 203.5 315 L 206.5 311 Z " /><path fill="rgb(124,58,44)" stroke="rgb(124,58,44)" stroke-width="1" opacity="0.996078431372549" d="M 199.5 315 L 202 315.5 L 199.5 316 L 199.5 315 Z " /><path fill="rgb(124,58,44)" stroke="rgb(124,58,44)" stroke-width="1" opacity="0.996078431372549" d="M 276.5 384 L 275.5 386 L 274 385.5 L 276.5 384 Z " /><path fill="rgb(124,58,44)" stroke="rgb(124,58,44)" stroke-width="1" opacity="0.996078431372549" d="M 249.5 386 L 251 386.5 L 248.5 388 L 249.5 386 Z " /><path fill="rgb(124,58,44)" stroke="rgb(124,58,44)" stroke-width="1" opacity="0.996078431372549" d="M 436.5 386 L 439 387.5 L 437.5 387 L 436.5 386 Z " /><path fill="rgb(124,58,44)" stroke="rgb(124,58,44)" stroke-width="1" opacity="0.996078431372549" d="M 439.5 389 L 440 395.5 L 438.5 397 L 424.5 397 L 424.5 396 L 439 396 L 439.5 389 Z " /><path fill="rgb(124,58,44)" stroke="rgb(124,58,44)" stroke-width="1" opacity="0.996078431372549" d="M 238.5 412 L 448.5 412 Q 465.6 415.9 476 426.5 L 484 437.5 L 496 464.5 L 495 467 L 492.5 468 L 194.5 468 L 192 467 L 194 457.5 L 205 434.5 L 217.5 421 Q 226.2 414.7 238.5 412 Z " /><path fill="rgb(0,0,0)" stroke="rgb(0,0,0)" stroke-width="1" opacity="0" d="M 0 0 L 512 0 L 512 370.5 L 511 370.5 L 508.5 367 L 503.5 366 L 491.5 369 L 486 373.5 L 485 377.5 L 489.5 384 L 494.5 385 L 506.5 382 L 511 378.5 L 511.5 377 L 512 512 L 0.5 512 L 0 511.5 L 0 456.5 L 1 456.5 Q 3.8 470.7 14.5 477 L 28.5 483 L 39.5 483 Q 57.2 478.7 66 465.5 L 127 399.5 L 132 393.5 L 133 387.5 L 131 383.5 L 143.5 370 L 151.5 371 L 163 360.5 L 190.5 330 Q 195.6 332.4 204.5 331 Q 213 328.5 218 322.5 Q 225 316 223 300.5 L 222 297.5 L 260.5 265 L 267.5 274 L 286.5 282 L 297.5 282 Q 306 279.5 310.5 273 L 321 284.5 L 316 294.5 L 316 304.5 Q 318.4 314.6 325.5 320 L 336.5 326 L 347.5 326 L 356.5 322 L 450 228.5 Q 454.4 222.9 454 212.5 Q 451.6 200.4 443.5 194 Q 437.3 187.7 424.5 188 Q 416.3 189.3 411.5 194 L 401 182.5 L 409 171.5 L 410 160.5 L 403 142.5 L 396.5 135 L 390.5 133 L 350 92.5 Q 348.8 84.2 342.5 81 L 323.5 73 L 313.5 73 Q 304.6 75.6 299.5 82 L 289 70.5 Q 296.1 64.6 294 49.5 Q 291.2 40.3 284.5 35 L 272.5 29 L 263.5 29 L 252.5 34 L 161 125.5 L 157 133.5 L 156 140.5 L 160 153.5 L 166.5 161 Q 172.9 167.6 186.5 167 L 193.5 165 L 198.5 161 L 210 172.5 L 204 178.5 L 200 187.5 L 200 193.5 L 209 215.5 L 213.5 220 L 217 221 L 215 225.5 L 184.5 261 L 174.5 259 L 164.5 262 L 156 269.5 Q 149.8 275.8 152 290.5 L 153 291.5 L 143.5 301 L 8 425.5 L 1 437.5 L 0.5 441 L 0 0 Z M 455 317 L 450 319 L 448 323 L 445 335 L 446 341 L 451 344 L 458 343 L 461 338 L 464 326 L 463 322 Q 461 317 455 317 Z M 484 337 L 480 339 L 469 351 L 470 358 L 475 361 L 481 360 L 492 349 L 492 342 Q 490 337 484 337 Z M 247 371 L 241 374 Q 235 378 233 385 L 233 398 L 225 400 Q 213 404 205 412 L 192 427 L 176 463 Q 176 470 179 475 Q 183 481 192 483 L 497 483 L 506 478 L 511 469 L 510 458 L 496 428 L 491 421 Q 478 404 455 398 Q 457 386 452 380 Q 448 373 441 371 L 305 371 L 300 376 L 300 378 L 280 378 L 279 375 L 275 371 L 247 371 Z " /><path fill="rgb(0,0,0)" stroke="rgb(0,0,0)" stroke-width="1" opacity="0.36470588235294116" d="M 263.5 29 L 266 29.5 L 263.5 30 L 263.5 29 Z " /><path fill="rgb(0,0,0)" stroke="rgb(0,0,0)" stroke-width="1" opacity="0.36470588235294116" d="M 270.5 29 L 273 29.5 L 270.5 30 L 270.5 29 Z " /><path fill="rgb(0,0,0)" stroke="rgb(0,0,0)" stroke-width="1" opacity="0.36470588235294116" d="M 280.5 32 L 281.5 34 L 280.5 32 Z " /><path fill="rgb(0,0,0)" stroke="rgb(0,0,0)" stroke-width="1" opacity="0.36470588235294116" d="M 252.5 34 L 161.5 126 L 252.5 34 Z " /><path fill="rgb(0,0,0)" stroke="rgb(0,0,0)" stroke-width="1" opacity="0.36470588235294116" d="M 284.5 35 L 287.5 39 L 284.5 35 Z " /><path fill="rgb(0,0,0)" stroke="rgb(0,0,0)" stroke-width="1" opacity="0.36470588235294116" d="M 306.5 76 L 305.5 78 L 306.5 76 Z " /><path fill="rgb(0,0,0)" stroke="rgb(0,0,0)" stroke-width="1" opacity="0.36470588235294116" d="M 342.5 81 L 343.5 83 L 342.5 81 Z " /><path fill="rgb(0,0,0)" stroke="rgb(0,0,0)" stroke-width="1" opacity="0.36470588235294116" d="M 396.5 135 L 397.5 137 L 396.5 135 Z " /><path fill="rgb(0,0,0)" stroke="rgb(0,0,0)" stroke-width="1" opacity="0.36470588235294116" d="M 162.5 156 L 166.5 161 L 162.5 156 Z " /><path fill="rgb(0,0,0)" stroke="rgb(0,0,0)" stroke-width="1" opacity="0.36470588235294116" d="M 409.5 160 L 410 162.5 L 409 162.5 L 409.5 160 Z " /><path fill="rgb(0,0,0)" stroke="rgb(0,0,0)" stroke-width="1" opacity="0.36470588235294116" d="M 196.5 162 L 195.5 164 L 196.5 162 Z " /><path fill="rgb(0,0,0)" stroke="rgb(0,0,0)" stroke-width="1" opacity="0.36470588235294116" d="M 179.5 166 L 187 166.5 L 179.5 167 L 179.5 166 Z " /><path fill="rgb(0,0,0)" stroke="rgb(0,0,0)" stroke-width="1" opacity="0.36470588235294116" d="M 409.5 166 L 410 168.5 L 409 168.5 L 409.5 166 Z " /><path fill="rgb(0,0,0)" stroke="rgb(0,0,0)" stroke-width="1" opacity="0.36470588235294116" d="M 205.5 177 L 204.5 179 L 205.5 177 Z " /><path fill="rgb(0,0,0)" stroke="rgb(0,0,0)" stroke-width="1" opacity="0.36470588235294116" d="M 403.5 179 L 400.5 183 L 403.5 179 Z " /><path fill="rgb(0,0,0)" stroke="rgb(0,0,0)" stroke-width="1" opacity="0.36470588235294116" d="M 200.5 187 L 201 193.5 L 200 193.5 L 200.5 187 Z " /><path fill="rgb(0,0,0)" stroke="rgb(0,0,0)" stroke-width="1" opacity="0.36470588235294116" d="M 424.5 188 L 430 188.5 L 424.5 189 L 424.5 188 Z " /><path fill="rgb(0,0,0)" stroke="rgb(0,0,0)" stroke-width="1" opacity="0.36470588235294116" d="M 413.5 192 L 412.5 194 L 413.5 192 Z " /><path fill="rgb(0,0,0)" stroke="rgb(0,0,0)" stroke-width="1" opacity="0.36470588235294116" d="M 443.5 194 L 447.5 199 L 443.5 194 Z " /><path fill="rgb(0,0,0)" stroke="rgb(0,0,0)" stroke-width="1" opacity="0.36470588235294116" d="M 453.5 212 L 454 217.5 L 453 217.5 L 453.5 212 Z " /><path fill="rgb(0,0,0)" stroke="rgb(0,0,0)" stroke-width="1" opacity="0.36470588235294116" d="M 212.5 218 L 213.5 220 L 212.5 218 Z " /><path fill="rgb(0,0,0)" stroke="rgb(0,0,0)" stroke-width="1" opacity="0.36470588235294116" d="M 217.5 221 L 218 222.5 L 215 224.5 L 217.5 221 Z " /><path fill="rgb(0,0,0)" stroke="rgb(0,0,0)" stroke-width="1" opacity="0.36470588235294116" d="M 212.5 228 L 210.5 231 L 212.5 228 Z " /><path fill="rgb(0,0,0)" stroke="rgb(0,0,0)" stroke-width="1" opacity="0.36470588235294116" d="M 449.5 228 L 448.5 230 L 449.5 228 Z " /><path fill="rgb(0,0,0)" stroke="rgb(0,0,0)" stroke-width="1" opacity="0.36470588235294116" d="M 206.5 235 L 205.5 237 L 206.5 235 Z " /><path fill="rgb(0,0,0)" stroke="rgb(0,0,0)" stroke-width="1" opacity="0.36470588235294116" d="M 201.5 241 L 199.5 244 L 201.5 241 Z " /><path fill="rgb(0,0,0)" stroke="rgb(0,0,0)" stroke-width="1" opacity="0.36470588235294116" d="M 196.5 247 L 194.5 250 L 196.5 247 Z " /><path fill="rgb(0,0,0)" stroke="rgb(0,0,0)" stroke-width="1" opacity="0.36470588235294116" d="M 191.5 253 L 189.5 256 L 191.5 253 Z " /><path fill="rgb(0,0,0)" stroke="rgb(0,0,0)" stroke-width="1" opacity="0.36470588235294116" d="M 174.5 259 L 178 259.5 L 174.5 260 L 174.5 259 Z " /><path fill="rgb(0,0,0)" stroke="rgb(0,0,0)" stroke-width="1" opacity="0.36470588235294116" d="M 186.5 259 L 185.5 261 L 186.5 259 Z " /><path fill="rgb(0,0,0)" stroke="rgb(0,0,0)" stroke-width="1" opacity="0.36470588235294116" d="M 257.5 267 L 255.5 270 L 257.5 267 Z " /><path fill="rgb(0,0,0)" stroke="rgb(0,0,0)" stroke-width="1" opacity="0.36470588235294116" d="M 157.5 268 L 156.5 270 L 157.5 268 Z " /><path fill="rgb(0,0,0)" stroke="rgb(0,0,0)" stroke-width="1" opacity="0.36470588235294116" d="M 251.5 272 L 249.5 275 L 251.5 272 Z " /><path fill="rgb(0,0,0)" stroke="rgb(0,0,0)" stroke-width="1" opacity="0.36470588235294116" d="M 266.5 272 L 267.5 274 L 266.5 272 Z " /><path fill="rgb(0,0,0)" stroke="rgb(0,0,0)" stroke-width="1" opacity="0.36470588235294116" d="M 309.5 273 L 306.5 277 L 309.5 273 Z " /><path fill="rgb(0,0,0)" stroke="rgb(0,0,0)" stroke-width="1" opacity="0.36470588235294116" d="M 244.5 278 L 243.5 280 L 244.5 278 Z " /><path fill="rgb(0,0,0)" stroke="rgb(0,0,0)" stroke-width="1" opacity="0.36470588235294116" d="M 238.5 283 L 236.5 286 L 238.5 283 Z " /><path fill="rgb(0,0,0)" stroke="rgb(0,0,0)" stroke-width="1" opacity="0.36470588235294116" d="M 321.5 284 L 320.5 286 L 321.5 284 Z " /><path fill="rgb(0,0,0)" stroke="rgb(0,0,0)" stroke-width="1" opacity="0.36470588235294116" d="M 232.5 288 L 230.5 291 L 232.5 288 Z " /><path fill="rgb(0,0,0)" stroke="rgb(0,0,0)" stroke-width="1" opacity="0.36470588235294116" d="M 152.5 292 L 149.5 296 L 152.5 292 Z " /><path fill="rgb(0,0,0)" stroke="rgb(0,0,0)" stroke-width="1" opacity="0.36470588235294116" d="M 226.5 293 L 224.5 296 L 226.5 293 Z " /><path fill="rgb(0,0,0)" stroke="rgb(0,0,0)" stroke-width="1" opacity="0.36470588235294116" d="M 142.5 301 L 136.5 308 L 142.5 301 Z " /><path fill="rgb(0,0,0)" stroke="rgb(0,0,0)" stroke-width="1" opacity="0.36470588235294116" d="M 129.5 313 L 123.5 320 L 129.5 313 Z " /><path fill="rgb(0,0,0)" stroke="rgb(0,0,0)" stroke-width="1" opacity="0.36470588235294116" d="M 322.5 316 L 325.5 320 L 322.5 316 Z " /><path fill="rgb(0,0,0)" stroke="rgb(0,0,0)" stroke-width="1" opacity="0.36470588235294116" d="M 454.5 317 L 457 317.5 L 454.5 318 L 454.5 317 Z " /><path fill="rgb(0,0,0)" stroke="rgb(0,0,0)" stroke-width="1" opacity="0.36470588235294116" d="M 217.5 322 L 214.5 326 L 217.5 322 Z " /><path fill="rgb(0,0,0)" stroke="rgb(0,0,0)" stroke-width="1" opacity="0.36470588235294116" d="M 116.5 325 L 110.5 332 L 116.5 325 Z " /><path fill="rgb(0,0,0)" stroke="rgb(0,0,0)" stroke-width="1" opacity="0.36470588235294116" d="M 186.5 334 L 180.5 341 L 186.5 334 Z " /><path fill="rgb(0,0,0)" stroke="rgb(0,0,0)" stroke-width="1" opacity="0.36470588235294116" d="M 445.5 334 L 446 338.5 L 445 338.5 L 445.5 334 Z " /><path fill="rgb(0,0,0)" stroke="rgb(0,0,0)" stroke-width="1" opacity="0.36470588235294116" d="M 483.5 337 L 487 337.5 L 483.5 338 L 483.5 337 Z " /><path fill="rgb(0,0,0)" stroke="rgb(0,0,0)" stroke-width="1" opacity="0.36470588235294116" d="M 102.5 338 L 97.5 344 L 102.5 338 Z " /><path fill="rgb(0,0,0)" stroke="rgb(0,0,0)" stroke-width="1" opacity="0.36470588235294116" d="M 479.5 339 L 470.5 349 L 479.5 339 Z " /><path fill="rgb(0,0,0)" stroke="rgb(0,0,0)" stroke-width="1" opacity="0.36470588235294116" d="M 446.5 340 L 448.5 343 L 446.5 340 Z " /><path fill="rgb(0,0,0)" stroke="rgb(0,0,0)" stroke-width="1" opacity="0.36470588235294116" d="M 458.5 341 L 457.5 343 L 458.5 341 Z " /><path fill="rgb(0,0,0)" stroke="rgb(0,0,0)" stroke-width="1" opacity="0.36470588235294116" d="M 174.5 347 L 168.5 354 L 174.5 347 Z " /><path fill="rgb(0,0,0)" stroke="rgb(0,0,0)" stroke-width="1" opacity="0.36470588235294116" d="M 89.5 350 L 84.5 356 L 89.5 350 Z " /><path fill="rgb(0,0,0)" stroke="rgb(0,0,0)" stroke-width="1" opacity="0.36470588235294116" d="M 470.5 357 L 472.5 360 L 470.5 357 Z " /><path fill="rgb(0,0,0)" stroke="rgb(0,0,0)" stroke-width="1" opacity="0.36470588235294116" d="M 162.5 360 L 156.5 367 L 162.5 360 Z " /><path fill="rgb(0,0,0)" stroke="rgb(0,0,0)" stroke-width="1" opacity="0.36470588235294116" d="M 76.5 362 L 71.5 368 L 76.5 362 Z " /><path fill="rgb(0,0,0)" stroke="rgb(0,0,0)" stroke-width="1" opacity="0.36470588235294116" d="M 503.5 366 L 506 366.5 L 503.5 367 L 503.5 366 Z " /><path fill="rgb(0,0,0)" stroke="rgb(0,0,0)" stroke-width="1" opacity="0.36470588235294116" d="M 508.5 367 L 510.5 370 L 508.5 367 Z " /><path fill="rgb(0,0,0)" stroke="rgb(0,0,0)" stroke-width="1" opacity="0.36470588235294116" d="M 63.5 374 L 58.5 380 L 63.5 374 Z " /><path fill="rgb(0,0,0)" stroke="rgb(0,0,0)" stroke-width="1" opacity="0.36470588235294116" d="M 492.5 384 L 495 384.5 L 492.5 385 L 492.5 384 Z " /><path fill="rgb(0,0,0)" stroke="rgb(0,0,0)" stroke-width="1" opacity="0.36470588235294116" d="M 51.5 385 L 45.5 392 L 51.5 385 Z " /><path fill="rgb(0,0,0)" stroke="rgb(0,0,0)" stroke-width="1" opacity="0.36470588235294116" d="M 454.5 387 L 455 398 L 457 398.5 L 455.5 399 L 454 397.5 L 454.5 387 Z " /><path fill="rgb(0,0,0)" stroke="rgb(0,0,0)" stroke-width="1" opacity="0.36470588235294116" d="M 37.5 398 L 32.5 404 L 37.5 398 Z " /><path fill="rgb(0,0,0)" stroke="rgb(0,0,0)" stroke-width="1" opacity="0.36470588235294116" d="M 126.5 399 L 120.5 406 L 126.5 399 Z " /><path fill="rgb(0,0,0)" stroke="rgb(0,0,0)" stroke-width="1" opacity="0.36470588235294116" d="M 476.5 407 L 477.5 409 L 476.5 407 Z " /><path fill="rgb(0,0,0)" stroke="rgb(0,0,0)" stroke-width="1" opacity="0.36470588235294116" d="M 209.5 408 L 208.5 410 L 209.5 408 Z " /><path fill="rgb(0,0,0)" stroke="rgb(0,0,0)" stroke-width="1" opacity="0.36470588235294116" d="M 24.5 410 L 19.5 416 L 24.5 410 Z " /><path fill="rgb(0,0,0)" stroke="rgb(0,0,0)" stroke-width="1" opacity="0.36470588235294116" d="M 480.5 410 L 482.5 413 L 480.5 410 Z " /><path fill="rgb(0,0,0)" stroke="rgb(0,0,0)" stroke-width="1" opacity="0.36470588235294116" d="M 114.5 412 L 108.5 419 L 114.5 412 Z " /><path fill="rgb(0,0,0)" stroke="rgb(0,0,0)" stroke-width="1" opacity="0.36470588235294116" d="M 204.5 412 L 198.5 419 L 204.5 412 Z " /><path fill="rgb(0,0,0)" stroke="rgb(0,0,0)" stroke-width="1" opacity="0.36470588235294116" d="M 489.5 419 L 490.5 421 L 489.5 419 Z " /><path fill="rgb(0,0,0)" stroke="rgb(0,0,0)" stroke-width="1" opacity="0.36470588235294116" d="M 11.5 422 L 8.5 426 L 11.5 422 Z " /><path fill="rgb(0,0,0)" stroke="rgb(0,0,0)" stroke-width="1" opacity="0.36470588235294116" d="M 195.5 422 L 194.5 424 L 195.5 422 Z " /><path fill="rgb(0,0,0)" stroke="rgb(0,0,0)" stroke-width="1" opacity="0.36470588235294116" d="M 492.5 423 L 493.5 425 L 492.5 423 Z " /><path fill="rgb(0,0,0)" stroke="rgb(0,0,0)" stroke-width="1" opacity="0.36470588235294116" d="M 102.5 425 L 96.5 432 L 102.5 425 Z " /><path fill="rgb(0,0,0)" stroke="rgb(0,0,0)" stroke-width="1" opacity="0.36470588235294116" d="M 193.5 425 L 192.5 427 L 193.5 425 Z " /><path fill="rgb(0,0,0)" stroke="rgb(0,0,0)" stroke-width="1" opacity="0.36470588235294116" d="M 494.5 426 L 495.5 428 L 494.5 426 Z " /><path fill="rgb(0,0,0)" stroke="rgb(0,0,0)" stroke-width="1" opacity="0.36470588235294116" d="M 90.5 438 L 84.5 445 L 90.5 438 Z " /><path fill="rgb(0,0,0)" stroke="rgb(0,0,0)" stroke-width="1" opacity="0.36470588235294116" d="M 77.5 452 L 72.5 458 L 77.5 452 Z " /><path fill="rgb(0,0,0)" stroke="rgb(0,0,0)" stroke-width="1" opacity="0.36470588235294116" d="M 0.5 453 L 1 455.5 L 0 455.5 L 0.5 453 Z " /><path fill="rgb(0,0,0)" stroke="rgb(0,0,0)" stroke-width="1" opacity="0.36470588235294116" d="M 510.5 460 L 511 462.5 L 510 462.5 L 510.5 460 Z " /><path fill="rgb(0,0,0)" stroke="rgb(0,0,0)" stroke-width="1" opacity="0.36470588235294116" d="M 176.5 462 L 177 466.5 L 176 466.5 L 176.5 462 Z " /><path fill="rgb(0,0,0)" stroke="rgb(0,0,0)" stroke-width="1" opacity="0.36470588235294116" d="M 65.5 465 L 60.5 471 L 65.5 465 Z " /><path fill="rgb(0,0,0)" stroke="rgb(0,0,0)" stroke-width="1" opacity="0.36470588235294116" d="M 510.5 466 L 511 468.5 L 510 468.5 L 510.5 466 Z " /><path fill="rgb(0,0,0)" stroke="rgb(0,0,0)" stroke-width="1" opacity="0.36470588235294116" d="M 5.5 467 L 6.5 469 L 5.5 467 Z " /><path fill="rgb(0,0,0)" stroke="rgb(0,0,0)" stroke-width="1" opacity="0.36470588235294116" d="M 56.5 474 L 55.5 476 L 56.5 474 Z " /><path fill="rgb(0,0,0)" stroke="rgb(0,0,0)" stroke-width="1" opacity="0.36470588235294116" d="M 179.5 474 L 180.5 476 L 179.5 474 Z " /><path fill="rgb(0,0,0)" stroke="rgb(0,0,0)" stroke-width="1" opacity="0.36470588235294116" d="M 28.5 482 L 32 482.5 L 28.5 483 L 28.5 482 Z " /><path fill="rgb(0,0,0)" stroke="rgb(0,0,0)" stroke-width="1" opacity="0.36470588235294116" d="M 37.5 482 L 40 482.5 L 37.5 483 L 37.5 482 Z " /><path fill="rgb(0,0,0)" stroke="rgb(0,0,0)" stroke-width="1" opacity="0.36470588235294116" d="M 494.5 482 L 497 482.5 L 494.5 483 L 494.5 482 Z " /><path fill="rgb(251,179,77)" stroke="rgb(251,179,77)" stroke-width="1" opacity="1" d="M 343.5 108 L 359 122.5 L 374 139.5 L 266.5 247 L 251.5 232 L 235 216.5 L 343.5 108 Z " /><path fill="rgb(177,88,73)" stroke="rgb(177,88,73)" stroke-width="1" opacity="0.996078431372549" d="M 277.5 83 L 289 93.5 L 283 99.5 L 283 106.5 L 285 108.5 L 271.5 122 L 264.5 120 L 261.5 121 L 220.5 161 L 210 150.5 L 277.5 83 Z " /><path fill="rgb(177,88,73)" stroke="rgb(177,88,73)" stroke-width="1" opacity="0.996078431372549" d="M 359.5 123 L 375 139.5 L 267 246.5 L 374 138.5 L 359.5 123 Z " /><path fill="rgb(177,88,73)" stroke="rgb(177,88,73)" stroke-width="1" opacity="0.996078431372549" d="M 389.5 194 L 400 205.5 L 332.5 273 L 322 262.5 L 389.5 194 Z " /><path fill="rgb(177,88,73)" stroke="rgb(177,88,73)" stroke-width="1" opacity="0.996078431372549" d="M 251.5 232 L 265.5 247 L 251.5 232 Z " /><path fill="rgb(177,88,73)" stroke="rgb(177,88,73)" stroke-width="1" opacity="0.996078431372549" d="M 173.5 275 L 180.5 276 L 207 302.5 L 208 307.5 L 202.5 315 L 198.5 316 L 193.5 314 L 168 288.5 L 167 281.5 L 171.5 276 L 173.5 275 Z " /><path fill="rgb(177,88,73)" stroke="rgb(177,88,73)" stroke-width="1" opacity="0.996078431372549" d="M 280 378 L 299.5 378 L 300 381.5 L 304.5 386 L 435.5 386 L 439 388.5 L 439 396 L 424.5 396 L 423.5 397 L 248 397 L 248 388.5 L 249.5 387 L 251.5 386 L 275.5 386 L 279 382.5 L 280 378 Z " /><path fill="rgb(0,0,0)" stroke="rgb(0,0,0)" stroke-width="1" opacity="0.8313725490196079" d="M 266.5 29 L 270 29.5 L 266.5 30 L 266.5 29 Z " /><path fill="rgb(0,0,0)" stroke="rgb(0,0,0)" stroke-width="1" opacity="0.8313725490196079" d="M 288.5 40 L 289.5 42 L 288.5 40 Z " /><path fill="rgb(0,0,0)" stroke="rgb(0,0,0)" stroke-width="1" opacity="0.8313725490196079" d="M 289.5 69 L 289 70.5 L 299.5 82 L 304.5 78 L 300.5 83 L 288 71.5 L 289.5 69 Z " /><path fill="rgb(0,0,0)" stroke="rgb(0,0,0)" stroke-width="1" opacity="0.8313725490196079" d="M 314.5 73 L 317 73.5 L 314.5 74 L 314.5 73 Z " /><path fill="rgb(0,0,0)" stroke="rgb(0,0,0)" stroke-width="1" opacity="0.8313725490196079" d="M 319.5 73 L 322 73.5 L 319.5 74 L 319.5 73 Z " /><path fill="rgb(0,0,0)" stroke="rgb(0,0,0)" stroke-width="1" opacity="0.8313725490196079" d="M 344.5 83 L 345.5 85 L 344.5 83 Z " /><path fill="rgb(0,0,0)" stroke="rgb(0,0,0)" stroke-width="1" opacity="0.8313725490196079" d="M 349.5 92 L 390.5 134 L 349.5 92 Z " /><path fill="rgb(0,0,0)" stroke="rgb(0,0,0)" stroke-width="1" opacity="0.8313725490196079" d="M 398.5 137 L 399.5 139 L 398.5 137 Z " /><path fill="rgb(0,0,0)" stroke="rgb(0,0,0)" stroke-width="1" opacity="0.8313725490196079" d="M 161.5 154 L 162.5 156 L 161.5 154 Z " /><path fill="rgb(0,0,0)" stroke="rgb(0,0,0)" stroke-width="1" opacity="0.8313725490196079" d="M 199.5 161 L 209.5 172 L 199.5 161 Z " /><path fill="rgb(0,0,0)" stroke="rgb(0,0,0)" stroke-width="1" opacity="0.8313725490196079" d="M 409.5 163 L 410 165.5 L 409 165.5 L 409.5 163 Z " /><path fill="rgb(0,0,0)" stroke="rgb(0,0,0)" stroke-width="1" opacity="0.8313725490196079" d="M 209.5 173 L 206.5 177 L 209.5 173 Z " /><path fill="rgb(0,0,0)" stroke="rgb(0,0,0)" stroke-width="1" opacity="0.8313725490196079" d="M 405.5 176 L 404.5 178 L 405.5 176 Z " /><path fill="rgb(0,0,0)" stroke="rgb(0,0,0)" stroke-width="1" opacity="0.8313725490196079" d="M 400.5 183 L 411.5 195 L 400.5 183 Z " /><path fill="rgb(0,0,0)" stroke="rgb(0,0,0)" stroke-width="1" opacity="0.8313725490196079" d="M 441.5 193 L 442.5 195 L 441.5 193 Z " /><path fill="rgb(0,0,0)" stroke="rgb(0,0,0)" stroke-width="1" opacity="0.8313725490196079" d="M 447.5 199 L 448.5 201 L 447.5 199 Z " /><path fill="rgb(0,0,0)" stroke="rgb(0,0,0)" stroke-width="1" opacity="0.8313725490196079" d="M 210.5 216 L 211.5 218 L 210.5 216 Z " /><path fill="rgb(0,0,0)" stroke="rgb(0,0,0)" stroke-width="1" opacity="0.8313725490196079" d="M 214.5 226 L 213.5 228 L 214.5 226 Z " /><path fill="rgb(0,0,0)" stroke="rgb(0,0,0)" stroke-width="1" opacity="0.8313725490196079" d="M 447.5 230 L 357.5 321 L 447.5 230 Z " /><path fill="rgb(0,0,0)" stroke="rgb(0,0,0)" stroke-width="1" opacity="0.8313725490196079" d="M 209.5 232 L 207.5 235 L 209.5 232 Z " /><path fill="rgb(0,0,0)" stroke="rgb(0,0,0)" stroke-width="1" opacity="0.8313725490196079" d="M 204.5 238 L 202.5 241 L 204.5 238 Z " /><path fill="rgb(0,0,0)" stroke="rgb(0,0,0)" stroke-width="1" opacity="0.8313725490196079" d="M 199.5 244 L 197.5 247 L 199.5 244 Z " /><path fill="rgb(0,0,0)" stroke="rgb(0,0,0)" stroke-width="1" opacity="0.8313725490196079" d="M 194.5 250 L 192.5 253 L 194.5 250 Z " /><path fill="rgb(0,0,0)" stroke="rgb(0,0,0)" stroke-width="1" opacity="0.8313725490196079" d="M 188.5 257 L 187.5 259 L 188.5 257 Z " /><path fill="rgb(0,0,0)" stroke="rgb(0,0,0)" stroke-width="1" opacity="0.8313725490196079" d="M 260.5 264 L 262 264.5 L 258.5 267 L 260.5 264 Z " /><path fill="rgb(0,0,0)" stroke="rgb(0,0,0)" stroke-width="1" opacity="0.8313725490196079" d="M 160.5 265 L 158.5 268 L 160.5 265 Z " /><path fill="rgb(0,0,0)" stroke="rgb(0,0,0)" stroke-width="1" opacity="0.8313725490196079" d="M 253.5 270 L 252.5 272 L 253.5 270 Z " /><path fill="rgb(0,0,0)" stroke="rgb(0,0,0)" stroke-width="1" opacity="0.8313725490196079" d="M 264.5 270 L 265.5 272 L 264.5 270 Z " /><path fill="rgb(0,0,0)" stroke="rgb(0,0,0)" stroke-width="1" opacity="0.8313725490196079" d="M 310.5 272 L 321.5 284 L 310.5 272 Z " /><path fill="rgb(0,0,0)" stroke="rgb(0,0,0)" stroke-width="1" opacity="0.8313725490196079" d="M 247.5 275 L 245.5 278 L 247.5 275 Z " /><path fill="rgb(0,0,0)" stroke="rgb(0,0,0)" stroke-width="1" opacity="0.8313725490196079" d="M 304.5 277 L 303.5 279 L 304.5 277 Z " /><path fill="rgb(0,0,0)" stroke="rgb(0,0,0)" stroke-width="1" opacity="0.8313725490196079" d="M 241.5 280 L 239.5 283 L 241.5 280 Z " /><path fill="rgb(0,0,0)" stroke="rgb(0,0,0)" stroke-width="1" opacity="0.8313725490196079" d="M 235.5 285 L 233.5 288 L 235.5 285 Z " /><path fill="rgb(0,0,0)" stroke="rgb(0,0,0)" stroke-width="1" opacity="0.8313725490196079" d="M 229.5 290 L 227.5 293 L 229.5 290 Z " /><path fill="rgb(0,0,0)" stroke="rgb(0,0,0)" stroke-width="1" opacity="0.8313725490196079" d="M 148.5 296 L 143.5 302 L 148.5 296 Z " /><path fill="rgb(0,0,0)" stroke="rgb(0,0,0)" stroke-width="1" opacity="0.8313725490196079" d="M 222.5 296 L 222 297.5 L 221.5 299 L 221 297.5 L 222.5 296 Z " /><path fill="rgb(0,0,0)" stroke="rgb(0,0,0)" stroke-width="1" opacity="0.8313725490196079" d="M 316.5 296 L 317 302.5 L 316 302.5 L 316.5 296 Z " /><path fill="rgb(0,0,0)" stroke="rgb(0,0,0)" stroke-width="1" opacity="0.8313725490196079" d="M 135.5 308 L 130.5 314 L 135.5 308 Z " /><path fill="rgb(0,0,0)" stroke="rgb(0,0,0)" stroke-width="1" opacity="0.8313725490196079" d="M 320.5 313 L 321.5 315 L 320.5 313 Z " /><path fill="rgb(0,0,0)" stroke="rgb(0,0,0)" stroke-width="1" opacity="0.8313725490196079" d="M 460.5 319 L 461.5 321 L 460.5 319 Z " /><path fill="rgb(0,0,0)" stroke="rgb(0,0,0)" stroke-width="1" opacity="0.8313725490196079" d="M 122.5 320 L 117.5 326 L 122.5 320 Z " /><path fill="rgb(0,0,0)" stroke="rgb(0,0,0)" stroke-width="1" opacity="0.8313725490196079" d="M 218.5 320 L 217.5 322 L 218.5 320 Z " /><path fill="rgb(0,0,0)" stroke="rgb(0,0,0)" stroke-width="1" opacity="0.8313725490196079" d="M 327.5 320 L 328.5 322 L 327.5 320 Z " /><path fill="rgb(0,0,0)" stroke="rgb(0,0,0)" stroke-width="1" opacity="0.8313725490196079" d="M 213.5 325 L 212.5 327 L 213.5 325 Z " /><path fill="rgb(0,0,0)" stroke="rgb(0,0,0)" stroke-width="1" opacity="0.8313725490196079" d="M 338.5 325 L 342 325.5 L 338.5 326 L 338.5 325 Z " /><path fill="rgb(0,0,0)" stroke="rgb(0,0,0)" stroke-width="1" opacity="0.8313725490196079" d="M 343.5 325 L 346 325.5 L 343.5 326 L 343.5 325 Z " /><path fill="rgb(0,0,0)" stroke="rgb(0,0,0)" stroke-width="1" opacity="0.8313725490196079" d="M 190.5 329 L 192 329.5 L 187.5 333 L 190.5 329 Z " /><path fill="rgb(0,0,0)" stroke="rgb(0,0,0)" stroke-width="1" opacity="0.8313725490196079" d="M 195.5 330 L 198 330.5 L 195.5 331 L 195.5 330 Z " /><path fill="rgb(0,0,0)" stroke="rgb(0,0,0)" stroke-width="1" opacity="0.8313725490196079" d="M 200.5 330 L 203 330.5 L 200.5 331 L 200.5 330 Z " /><path fill="rgb(0,0,0)" stroke="rgb(0,0,0)" stroke-width="1" opacity="0.8313725490196079" d="M 109.5 332 L 104.5 338 L 109.5 332 Z " /><path fill="rgb(0,0,0)" stroke="rgb(0,0,0)" stroke-width="1" opacity="0.8313725490196079" d="M 489.5 339 L 490.5 341 L 489.5 339 Z " /><path fill="rgb(0,0,0)" stroke="rgb(0,0,0)" stroke-width="1" opacity="0.8313725490196079" d="M 179.5 341 L 175.5 346 L 179.5 341 Z " /><path fill="rgb(0,0,0)" stroke="rgb(0,0,0)" stroke-width="1" opacity="0.8313725490196079" d="M 451.5 343 L 455 343.5 L 451.5 344 L 451.5 343 Z " /><path fill="rgb(0,0,0)" stroke="rgb(0,0,0)" stroke-width="1" opacity="0.8313725490196079" d="M 96.5 344 L 91.5 350 L 96.5 344 Z " /><path fill="rgb(0,0,0)" stroke="rgb(0,0,0)" stroke-width="1" opacity="0.8313725490196079" d="M 490.5 349 L 481.5 359 L 490.5 349 Z " /><path fill="rgb(0,0,0)" stroke="rgb(0,0,0)" stroke-width="1" opacity="0.8313725490196079" d="M 469.5 351 L 470 354.5 L 469 354.5 L 469.5 351 Z " /><path fill="rgb(0,0,0)" stroke="rgb(0,0,0)" stroke-width="1" opacity="0.8313725490196079" d="M 167.5 354 L 162.5 360 L 167.5 354 Z " /><path fill="rgb(0,0,0)" stroke="rgb(0,0,0)" stroke-width="1" opacity="0.8313725490196079" d="M 83.5 356 L 78.5 362 L 83.5 356 Z " /><path fill="rgb(0,0,0)" stroke="rgb(0,0,0)" stroke-width="1" opacity="0.8313725490196079" d="M 155.5 367 L 154.5 369 L 155.5 367 Z " /><path fill="rgb(0,0,0)" stroke="rgb(0,0,0)" stroke-width="1" opacity="0.8313725490196079" d="M 70.5 368 L 65.5 374 L 70.5 368 Z " /><path fill="rgb(0,0,0)" stroke="rgb(0,0,0)" stroke-width="1" opacity="0.8313725490196079" d="M 248.5 371 L 251 371.5 L 248.5 372 L 248.5 371 Z " /><path fill="rgb(0,0,0)" stroke="rgb(0,0,0)" stroke-width="1" opacity="0.8313725490196079" d="M 437.5 371 L 440 371.5 L 437.5 372 L 437.5 371 Z " /><path fill="rgb(0,0,0)" stroke="rgb(0,0,0)" stroke-width="1" opacity="0.8313725490196079" d="M 488.5 371 L 487.5 373 L 488.5 371 Z " /><path fill="rgb(0,0,0)" stroke="rgb(0,0,0)" stroke-width="1" opacity="0.8313725490196079" d="M 303.5 372 L 301.5 375 L 303.5 372 Z " /><path fill="rgb(0,0,0)" stroke="rgb(0,0,0)" stroke-width="1" opacity="0.8313725490196079" d="M 446.5 374 L 450.5 379 L 446.5 374 Z " /><path fill="rgb(0,0,0)" stroke="rgb(0,0,0)" stroke-width="1" opacity="0.8313725490196079" d="M 239.5 375 L 237.5 378 L 239.5 375 Z " /><path fill="rgb(0,0,0)" stroke="rgb(0,0,0)" stroke-width="1" opacity="0.8313725490196079" d="M 57.5 380 L 52.5 386 L 57.5 380 Z " /><path fill="rgb(0,0,0)" stroke="rgb(0,0,0)" stroke-width="1" opacity="0.8313725490196079" d="M 487.5 381 L 488.5 383 L 487.5 381 Z " /><path fill="rgb(0,0,0)" stroke="rgb(0,0,0)" stroke-width="1" opacity="0.8313725490196079" d="M 44.5 392 L 39.5 398 L 44.5 392 Z " /><path fill="rgb(0,0,0)" stroke="rgb(0,0,0)" stroke-width="1" opacity="0.8313725490196079" d="M 130.5 394 L 127.5 398 L 130.5 394 Z " /><path fill="rgb(0,0,0)" stroke="rgb(0,0,0)" stroke-width="1" opacity="0.8313725490196079" d="M 31.5 404 L 26.5 410 L 31.5 404 Z " /><path fill="rgb(0,0,0)" stroke="rgb(0,0,0)" stroke-width="1" opacity="0.8313725490196079" d="M 119.5 406 L 114.5 412 L 119.5 406 Z " /><path fill="rgb(0,0,0)" stroke="rgb(0,0,0)" stroke-width="1" opacity="0.8313725490196079" d="M 211.5 407 L 210.5 409 L 211.5 407 Z " /><path fill="rgb(0,0,0)" stroke="rgb(0,0,0)" stroke-width="1" opacity="0.8313725490196079" d="M 207.5 410 L 206.5 412 L 207.5 410 Z " /><path fill="rgb(0,0,0)" stroke="rgb(0,0,0)" stroke-width="1" opacity="0.8313725490196079" d="M 483.5 413 L 488.5 419 L 483.5 413 Z " /><path fill="rgb(0,0,0)" stroke="rgb(0,0,0)" stroke-width="1" opacity="0.8313725490196079" d="M 18.5 416 L 13.5 422 L 18.5 416 Z " /><path fill="rgb(0,0,0)" stroke="rgb(0,0,0)" stroke-width="1" opacity="0.8313725490196079" d="M 107.5 419 L 102.5 425 L 107.5 419 Z " /><path fill="rgb(0,0,0)" stroke="rgb(0,0,0)" stroke-width="1" opacity="0.8313725490196079" d="M 197.5 420 L 196.5 422 L 197.5 420 Z " /><path fill="rgb(0,0,0)" stroke="rgb(0,0,0)" stroke-width="1" opacity="0.8313725490196079" d="M 7.5 427 L 6.5 429 L 7.5 427 Z " /><path fill="rgb(0,0,0)" stroke="rgb(0,0,0)" stroke-width="1" opacity="0.8313725490196079" d="M 95.5 432 L 90.5 438 L 95.5 432 Z " /><path fill="rgb(0,0,0)" stroke="rgb(0,0,0)" stroke-width="1" opacity="0.8313725490196079" d="M 0.5 443 L 1 446.5 L 0 446.5 L 0.5 443 Z " /><path fill="rgb(0,0,0)" stroke="rgb(0,0,0)" stroke-width="1" opacity="0.8313725490196079" d="M 83.5 445 L 78.5 451 L 83.5 445 Z " /><path fill="rgb(0,0,0)" stroke="rgb(0,0,0)" stroke-width="1" opacity="0.8313725490196079" d="M 0.5 450 L 1 452.5 L 0 452.5 L 0.5 450 Z " /><path fill="rgb(0,0,0)" stroke="rgb(0,0,0)" stroke-width="1" opacity="0.8313725490196079" d="M 71.5 458 L 66.5 464 L 71.5 458 Z " /><path fill="rgb(0,0,0)" stroke="rgb(0,0,0)" stroke-width="1" opacity="0.8313725490196079" d="M 510.5 463 L 511 465.5 L 510 465.5 L 510.5 463 Z " /><path fill="rgb(0,0,0)" stroke="rgb(0,0,0)" stroke-width="1" opacity="0.8313725490196079" d="M 7.5 469 L 9.5 472 L 7.5 469 Z " /><path fill="rgb(0,0,0)" stroke="rgb(0,0,0)" stroke-width="1" opacity="0.8313725490196079" d="M 59.5 471 L 57.5 474 L 59.5 471 Z " /><path fill="rgb(0,0,0)" stroke="rgb(0,0,0)" stroke-width="1" opacity="0.8313725490196079" d="M 11.5 473 L 13.5 476 L 11.5 473 Z " /><path fill="rgb(0,0,0)" stroke="rgb(0,0,0)" stroke-width="1" opacity="0.8313725490196079" d="M 507.5 474 L 506.5 476 L 507.5 474 Z " /><path fill="rgb(0,0,0)" stroke="rgb(0,0,0)" stroke-width="1" opacity="0.8313725490196079" d="M 181.5 476 L 183.5 479 L 181.5 476 Z " /><path fill="rgb(0,0,0)" stroke="rgb(0,0,0)" stroke-width="1" opacity="0.8313725490196079" d="M 503.5 478 L 502.5 480 L 503.5 478 Z " /><path fill="rgb(0,0,0)" stroke="rgb(0,0,0)" stroke-width="1" opacity="0.8313725490196079" d="M 32.5 482 L 37 482.5 L 32.5 483 L 32.5 482 Z " /><path fill="rgb(0,0,0)" stroke="rgb(0,0,0)" stroke-width="1" opacity="0.8313725490196079" d="M 193.5 482 L 494 482.5 L 193.5 483 L 193.5 482 Z " /><path fill="rgb(0,0,0)" stroke="rgb(0,0,0)" stroke-width="1" opacity="1" d="M 262.5 30 Q 271.4 28.6 276.5 31 L 288 39.5 Q 294.1 45.4 294 57.5 L 293 62.5 L 288 71.5 L 300.5 83 Q 305.5 74 318.5 73 Q 336.3 76.3 347 86.5 L 349 92.5 L 390.5 134 Q 397.9 135.1 401 140.5 L 409 159.5 L 409 169.5 L 407 174.5 L 400 183.5 L 411.5 195 L 413.5 193 L 423.5 189 L 431.5 189 Q 441.6 191.4 447 198.5 Q 454.2 204.8 453 219.5 L 449 228.5 L 355.5 322 L 342.5 326 Q 341 323.5 335.5 325 L 329.5 322 L 322 315.5 Q 315 309 317 293.5 L 322 283.5 L 310.5 272 L 305.5 277 Q 300.3 282.3 289.5 282 L 270.5 275 L 263 268.5 L 262 264 L 221 297.5 L 223 308.5 L 221 316.5 L 214.5 325 L 205.5 330 L 198.5 331 L 190.5 329 L 152.5 370 L 148.5 371 L 142 366.5 Q 140.8 359.8 144 357.5 L 178 320.5 L 161.5 305 L 18 437.5 Q 13.8 442.3 15 452.5 Q 17.1 459.9 22.5 464 Q 27.5 468 36.5 468 L 44.5 465 L 60 449.5 L 119 385.5 L 119 384 L 122.5 382 L 127.5 382 L 130 383 L 132 386.5 L 132 392.5 L 54.5 476 L 41.5 482 L 27.5 482 Q 16.6 478.9 10 473 L 3 462.5 L 0 447.5 L 3 434.5 L 12.5 422 L 153 292.5 L 152 281.5 Q 154 269.5 162.5 264 L 172.5 260 L 179.5 260 L 184.5 262 L 218 221.5 L 209 214.5 L 201 194.5 L 201 186.5 L 204 179.5 L 210 173.5 L 210 171.5 L 199.5 161 L 197.5 161 Q 192 168 177.5 166 Q 168.3 163.2 163 156.5 Q 156.7 150.3 157 137.5 L 162 125.5 L 253.5 34 L 262.5 30 Z M 267 44 L 264 45 L 172 138 L 173 146 Q 176 150 183 152 L 189 150 L 279 59 L 278 51 Q 275 44 267 44 Z M 278 82 L 209 151 L 221 162 L 263 121 L 270 122 L 273 127 L 272 132 L 216 189 L 216 194 L 221 206 L 224 207 L 334 97 L 334 95 L 320 88 L 315 89 L 294 110 Q 287 111 285 109 L 283 106 L 283 101 L 289 93 L 278 82 Z M 344 107 L 235 217 L 267 248 L 375 140 L 344 107 Z M 388 148 L 276 261 L 291 267 L 296 266 L 394 168 L 395 165 L 388 148 Z M 390 193 L 321 263 L 333 273 L 401 205 L 390 193 Z M 424 204 L 421 206 L 334 293 L 331 298 Q 330 303 333 306 L 341 311 Q 346 312 349 309 L 438 219 L 437 210 Q 435 202 424 204 Z M 230 232 L 198 270 L 197 271 L 213 286 L 250 255 L 251 254 L 230 232 Z M 173 275 L 171 276 L 167 281 L 168 290 L 193 314 L 197 316 L 204 315 L 208 310 L 207 302 L 182 276 L 173 275 Z " /><path fill="rgb(0,0,0)" stroke="rgb(0,0,0)" stroke-width="1" opacity="1" d="M 453.5 318 Q 460.4 317.1 462 321.5 L 463 326.5 L 460 338.5 L 457.5 342 L 449.5 343 Q 444.9 341.1 446 333.5 L 450 320 L 453.5 318 Z " /><path fill="rgb(0,0,0)" stroke="rgb(0,0,0)" stroke-width="1" opacity="1" d="M 482.5 338 Q 489.4 337.1 491 341.5 L 492 346.5 L 479.5 360 Q 471.9 361.1 470 356.5 L 471 348.5 L 480.5 339 L 482.5 338 Z " /><path fill="rgb(0,0,0)" stroke="rgb(0,0,0)" stroke-width="1" opacity="1" d="M 502.5 367 Q 509.4 366.1 511 370.5 L 512 374.5 L 507.5 381 L 491.5 384 L 487 380.5 L 486 375.5 L 490.5 370 L 502.5 367 Z " /><path fill="rgb(0,0,0)" stroke="rgb(0,0,0)" stroke-width="1" opacity="1" d="M 251.5 371 L 271.5 371 L 275.5 372 L 279 375.5 Q 279.8 381.6 278 384 L 273.5 386 L 249.5 386 L 248 387.5 L 248 396.5 L 248.5 397 L 438.5 397 Q 441.5 395.5 440 389.5 L 437.5 386 L 305.5 386 L 301 382.5 L 300 378.5 L 304.5 372 L 307.5 371 L 436.5 371 Q 447.4 372.6 452 380.5 L 454 385.5 L 454 399 Q 478.3 403.9 491 421.5 L 510 459.5 L 510 469.5 L 504.5 478 L 497.5 482 L 190.5 482 Q 183.3 480.2 180 474.5 Q 176.1 470.4 177 461.5 L 190 431.5 Q 196 420 205.5 412 Q 216.1 401.7 233 399 Q 230.8 380.5 241.5 374 L 251.5 371 Z M 239 412 Q 226 415 218 421 L 205 435 L 194 458 L 192 467 L 195 468 L 493 468 L 495 467 L 496 465 L 484 438 L 476 427 Q 466 416 449 412 L 239 412 Z " /></svg>